<svg xmlns="http://www.w3.org/2000/svg" width="24" height="24" viewBox="0 0 24 24">
  <path d="M13 2.004c5.046.504 9 4.783 9 9.97 0 1.467-.324 2.856-.892 4.113l1.738 1.005c.732-1.553 1.154-3.284 1.154-5.117 0-6.304-4.842-11.464-11-11.975v2.004zm-10.109 14.083c-.568-1.257-.891-2.646-.891-4.112 0-5.188 3.954-9.466 9-9.97v-2.005c-6.158.511-11 5.671-11 11.975 0 1.833.421 3.563 1.153 5.118l1.738-1.006zm17.213 1.734c-1.817 2.523-4.769 4.174-8.104 4.174s-6.288-1.651-8.105-4.175l-1.746 1.01c2.167 3.123 5.768 5.17 9.851 5.17 4.082 0 7.683-2.047 9.851-5.168l-1.747-1.011zm-8.104-13.863c-4.419 0-8 3.589-8 8.017s3.581 8.017 8 8.017 8-3.589 8-8.017-3.581-8.017-8-8.017zm-2 11.023v-6.013l6 3.152-6 2.861z" style="fill: #E8F1F2" />
  <!-- Bottom -->
  <path d="M 20.104,17.821 C 18.287,20.344 15.335,21.995 12,21.995 8.665,21.995 5.712,20.344 3.895,17.82 L 2.149,18.83 C 4.316,21.953 7.917,24 12,24 c 4.082,0 7.683,-2.047 9.851,-5.168 z" style="fill: #F26430" />
  <!-- Top left -->
  <path d="M 2.891,16.087 C 2.323,14.83 2,13.441 2,11.975 2,6.787 5.954,2.509 11,2.005 V 0 C 4.842,0.511 0,5.671 0,11.975 c 0,1.833 0.421,3.563 1.153,5.118 z" style="fill: #BBBE64" />
  <!-- Top right -->
  <path d="m 13,2.004 c 5.046,0.504 9,4.783 9,9.97 0,1.467 -0.324,2.856 -0.892,4.113 l 1.738,1.005 C 23.578,15.539 24,13.808 24,11.975 24,5.671 19.158,0.511 13,0 Z" style="fill: #17BEBB" />
</svg>